# xmcd
#
# Track frame offsets:
#	150
#	17135
#	34932
#	57010
#	80356
#	104014
#	124459
#	141121
#	170399
#	186062
#	209921
#
# Disc length: 3036 seconds
#
# Revision: 1
# Processed by: cddbd v1.5.2PL0 Copyright (c) Steve Scherf et al.
# Submitted via: audiograbber 1.83.01
#
DISCID=a00bda0b
DTITLE=Night Horse - Perdition Hymns
DYEAR=2010
DGENRE=hard rock
TTITLE0=Confess To Me
TTITLE1=Angel Eyes
TTITLE2=Rollin' On
TTITLE3=Goodbye Gone
TTITLE4=Black Clouds
TTITLE5=Come Down Halo
TTITLE6=Blizzard Of Oblivion
TTITLE7=Hard To Bear
TTITLE8=Shake Your Blues
TTITLE9=Choose Your Side
TTITLE10=Same Old Blues
EXTD=
EXTT0=
EXTT1=
EXTT2=
EXTT3=
EXTT4=
EXTT5=
EXTT6=
EXTT7=
EXTT8=
EXTT9=
EXTT10=
PLAYORDER=
